<svg width="175" height="192" viewBox="0 0 175 192" fill="none" xmlns="http://www.w3.org/2000/svg">
<path d="M49.9736 25.7301C31.4409 37.2131 9.86003 46.4234 2.78835 61.734C-4.28334 77.0446 3.15413 98.336 13.274 115.8C23.2719 133.263 35.9521 146.899 50.827 161.612C65.702 176.444 82.7716 192.353 99.4754 191.994C116.301 191.516 132.761 174.77 145.563 159.339C158.487 143.909 167.632 129.914 172.021 114.723C176.41 99.6518 175.801 83.3842 171.168 68.3128C166.534 53.1218 157.634 39.1269 145.076 25.7301C132.517 12.3333 116.179 -0.465451 100.207 0.0130064C84.2347 0.491464 68.6282 14.2471 49.9736 25.7301Z" fill="#00A3FF"/>
<path d="M113.158 65.9551H106.617V69.6565H113.158V76.1634H116.859V69.6565H123.4V65.9551H116.859V59.3637H113.158V65.9551Z" fill="white"/>
</svg>
