<svg width="102" height="100" viewBox="0 0 102 100" fill="none" xmlns="http://www.w3.org/2000/svg">
<path d="M8.66046 3.86C7.60046 3.86 6.73047 3 6.73047 1.93C6.73047 0.87 7.59046 0 8.66046 0C9.73046 0 10.5905 0.86 10.5905 1.93C10.5905 2.99 9.72046 3.86 8.66046 3.86Z" fill="#0B315E"/>
<path d="M26.8011 3.86C25.7411 3.86 24.8711 3 24.8711 1.93C24.8711 0.87 25.7311 0 26.8011 0C27.8611 0 28.7311 0.86 28.7311 1.93C28.7211 2.99 27.8611 3.86 26.8011 3.86Z" fill="#0B315E"/>
<path d="M44.93 3.86C43.87 3.86 43 3 43 1.93C43 0.87 43.86 0 44.93 0C45.99 0 46.86 0.86 46.86 1.93C46.86 2.99 46 3.86 44.93 3.86Z" fill="#0B315E"/>
<path d="M63.0707 3.86C62.0107 3.86 61.1406 3 61.1406 1.93C61.1406 0.87 62.0007 0 63.0707 0C64.1307 0 65.0007 0.86 65.0007 1.93C65.0007 2.99 64.1307 3.86 63.0707 3.86Z" fill="#0B315E"/>
<path d="M81.1996 3.86C80.1396 3.86 79.2695 3 79.2695 1.93C79.2695 0.87 80.1296 0 81.1996 0C82.2596 0 83.1296 0.86 83.1296 1.93C83.1296 2.99 82.2696 3.86 81.1996 3.86Z" fill="#0B315E"/>
<path d="M99.3401 3.86C98.2801 3.86 97.4102 3 97.4102 1.93C97.4102 0.87 98.2701 0 99.3401 0C100.41 0 101.27 0.86 101.27 1.93C101.27 2.99 100.4 3.86 99.3401 3.86Z" fill="#0B315E"/>
<path d="M8.66046 20.4C7.60046 20.4 6.73047 19.54 6.73047 18.47C6.73047 17.41 7.59046 16.54 8.66046 16.54C9.73046 16.54 10.5905 17.4 10.5905 18.47C10.5905 19.53 9.72046 20.4 8.66046 20.4Z" fill="#0B315E"/>
<path d="M26.8011 20.4C25.7411 20.4 24.8711 19.54 24.8711 18.47C24.8711 17.41 25.7311 16.54 26.8011 16.54C27.8611 16.54 28.7311 17.4 28.7311 18.47C28.7211 19.53 27.8611 20.4 26.8011 20.4Z" fill="#0B315E"/>
<path d="M44.93 20.4C43.87 20.4 43 19.54 43 18.47C43 17.41 43.86 16.54 44.93 16.54C45.99 16.54 46.86 17.4 46.86 18.47C46.86 19.53 46 20.4 44.93 20.4Z" fill="#0B315E"/>
<path d="M63.0707 20.4C62.0107 20.4 61.1406 19.54 61.1406 18.47C61.1406 17.41 62.0007 16.54 63.0707 16.54C64.1307 16.54 65.0007 17.4 65.0007 18.47C65.0007 19.53 64.1307 20.4 63.0707 20.4Z" fill="#0B315E"/>
<path d="M81.1996 20.4C80.1396 20.4 79.2695 19.54 79.2695 18.47C79.2695 17.41 80.1296 16.54 81.1996 16.54C82.2596 16.54 83.1296 17.4 83.1296 18.47C83.1296 19.53 82.2696 20.4 81.1996 20.4Z" fill="#0B315E"/>
<path d="M99.3401 20.4C98.2801 20.4 97.4102 19.54 97.4102 18.47C97.4102 17.41 98.2701 16.54 99.3401 16.54C100.41 16.54 101.27 17.4 101.27 18.47C101.27 19.53 100.4 20.4 99.3401 20.4Z" fill="#0B315E"/>
<path d="M8.66046 36.9301C7.60046 36.9301 6.73047 36.0701 6.73047 35.0001C6.73047 33.9401 7.59046 33.0701 8.66046 33.0701C9.73046 33.0701 10.5905 33.9301 10.5905 35.0001C10.5905 36.0701 9.72046 36.9301 8.66046 36.9301Z" fill="#0B315E"/>
<path d="M26.8011 36.9301C25.7411 36.9301 24.8711 36.0701 24.8711 35.0001C24.8711 33.9401 25.7311 33.0701 26.8011 33.0701C27.8611 33.0701 28.7311 33.9301 28.7311 35.0001C28.7211 36.0701 27.8611 36.9301 26.8011 36.9301Z" fill="#0B315E"/>
<path d="M44.93 36.9301C43.87 36.9301 43 36.0701 43 35.0001C43 33.9401 43.86 33.0701 44.93 33.0701C45.99 33.0701 46.86 33.9301 46.86 35.0001C46.86 36.0701 46 36.9301 44.93 36.9301Z" fill="#0B315E"/>
<path d="M63.0707 36.9301C62.0107 36.9301 61.1406 36.0701 61.1406 35.0001C61.1406 33.9401 62.0007 33.0701 63.0707 33.0701C64.1307 33.0701 65.0007 33.9301 65.0007 35.0001C65.0007 36.0701 64.1307 36.9301 63.0707 36.9301Z" fill="#0B315E"/>
<path d="M81.1996 36.9301C80.1396 36.9301 79.2695 36.0701 79.2695 35.0001C79.2695 33.9401 80.1296 33.0701 81.1996 33.0701C82.2596 33.0701 83.1296 33.9301 83.1296 35.0001C83.1296 36.0701 82.2696 36.9301 81.1996 36.9301Z" fill="#0B315E"/>
<path d="M99.3401 36.9301C98.2801 36.9301 97.4102 36.0701 97.4102 35.0001C97.4102 33.9401 98.2701 33.0701 99.3401 33.0701C100.41 33.0701 101.27 33.9301 101.27 35.0001C101.27 36.0701 100.4 36.9301 99.3401 36.9301Z" fill="#0B315E"/>
<path d="M8.66046 53.4701C7.60046 53.4701 6.73047 52.6101 6.73047 51.5401C6.73047 50.4801 7.59046 49.6101 8.66046 49.6101C9.73046 49.6101 10.5905 50.4701 10.5905 51.5401C10.5905 52.6001 9.72046 53.4701 8.66046 53.4701Z" fill="#0B315E"/>
<path d="M26.8011 53.4701C25.7411 53.4701 24.8711 52.6101 24.8711 51.5401C24.8711 50.4801 25.7311 49.6101 26.8011 49.6101C27.8611 49.6101 28.7311 50.4701 28.7311 51.5401C28.7211 52.6001 27.8611 53.4701 26.8011 53.4701Z" fill="#0B315E"/>
<path d="M44.93 53.4701C43.87 53.4701 43 52.6101 43 51.5401C43 50.4801 43.86 49.6101 44.93 49.6101C45.99 49.6101 46.86 50.4701 46.86 51.5401C46.86 52.6001 46 53.4701 44.93 53.4701Z" fill="#0B315E"/>
<path d="M63.0707 53.4701C62.0107 53.4701 61.1406 52.6101 61.1406 51.5401C61.1406 50.4801 62.0007 49.6101 63.0707 49.6101C64.1307 49.6101 65.0007 50.4701 65.0007 51.5401C65.0007 52.6001 64.1307 53.4701 63.0707 53.4701Z" fill="#0B315E"/>
<path d="M81.1996 53.4701C80.1396 53.4701 79.2695 52.6101 79.2695 51.5401C79.2695 50.4801 80.1296 49.6101 81.1996 49.6101C82.2596 49.6101 83.1296 50.4701 83.1296 51.5401C83.1296 52.6001 82.2696 53.4701 81.1996 53.4701Z" fill="#0B315E"/>
<path d="M99.3401 53.4701C98.2801 53.4701 97.4102 52.6101 97.4102 51.5401C97.4102 50.4801 98.2701 49.6101 99.3401 49.6101C100.41 49.6101 101.27 50.4701 101.27 51.5401C101.27 52.6001 100.4 53.4701 99.3401 53.4701Z" fill="#0B315E"/>
<path d="M8.66046 70.0099C7.60046 70.0099 6.73047 69.1499 6.73047 68.0799C6.73047 67.0199 7.59046 66.1499 8.66046 66.1499C9.73046 66.1499 10.5905 67.0099 10.5905 68.0799C10.5905 69.1399 9.72046 70.0099 8.66046 70.0099Z" fill="#0B315E"/>
<path d="M26.8011 70.0099C25.7411 70.0099 24.8711 69.1499 24.8711 68.0799C24.8711 67.0199 25.7311 66.1499 26.8011 66.1499C27.8611 66.1499 28.7311 67.0099 28.7311 68.0799C28.7211 69.1399 27.8611 70.0099 26.8011 70.0099Z" fill="#0B315E"/>
<path d="M44.93 70.0099C43.87 70.0099 43 69.1499 43 68.0799C43 67.0199 43.86 66.1499 44.93 66.1499C45.99 66.1499 46.86 67.0099 46.86 68.0799C46.86 69.1399 46 70.0099 44.93 70.0099Z" fill="#0B315E"/>
<path d="M63.0707 70.0099C62.0107 70.0099 61.1406 69.1499 61.1406 68.0799C61.1406 67.0199 62.0007 66.1499 63.0707 66.1499C64.1307 66.1499 65.0007 67.0099 65.0007 68.0799C65.0007 69.1399 64.1307 70.0099 63.0707 70.0099Z" fill="#0B315E"/>
<path d="M81.1996 70.0099C80.1396 70.0099 79.2695 69.1499 79.2695 68.0799C79.2695 67.0199 80.1296 66.1499 81.1996 66.1499C82.2596 66.1499 83.1296 67.0099 83.1296 68.0799C83.1296 69.1399 82.2696 70.0099 81.1996 70.0099Z" fill="#0B315E"/>
<path d="M99.3401 70.0099C98.2801 70.0099 97.4102 69.1499 97.4102 68.0799C97.4102 67.0199 98.2701 66.1499 99.3401 66.1499C100.41 66.1499 101.27 67.0099 101.27 68.0799C101.27 69.1399 100.4 70.0099 99.3401 70.0099Z" fill="#0B315E"/>
<path d="M8.66046 86.5399C7.60046 86.5399 6.73047 85.6799 6.73047 84.6099C6.73047 83.5499 7.59046 82.6799 8.66046 82.6799C9.73046 82.6799 10.5905 83.5399 10.5905 84.6099C10.5905 85.6799 9.72046 86.5399 8.66046 86.5399Z" fill="#0B315E"/>
<path d="M26.8011 86.5399C25.7411 86.5399 24.8711 85.6799 24.8711 84.6099C24.8711 83.5499 25.7311 82.6799 26.8011 82.6799C27.8611 82.6799 28.7311 83.5399 28.7311 84.6099C28.7211 85.6799 27.8611 86.5399 26.8011 86.5399Z" fill="#0B315E"/>
<path d="M44.93 86.5399C43.87 86.5399 43 85.6799 43 84.6099C43 83.5499 43.86 82.6799 44.93 82.6799C45.99 82.6799 46.86 83.5399 46.86 84.6099C46.86 85.6799 46 86.5399 44.93 86.5399Z" fill="#0B315E"/>
<path d="M63.0707 86.5399C62.0107 86.5399 61.1406 85.6799 61.1406 84.6099C61.1406 83.5499 62.0007 82.6799 63.0707 82.6799C64.1307 82.6799 65.0007 83.5399 65.0007 84.6099C65.0007 85.6799 64.1307 86.5399 63.0707 86.5399Z" fill="#0B315E"/>
<path d="M81.1996 86.5399C80.1396 86.5399 79.2695 85.6799 79.2695 84.6099C79.2695 83.5499 80.1296 82.6799 81.1996 82.6799C82.2596 82.6799 83.1296 83.5399 83.1296 84.6099C83.1296 85.6799 82.2696 86.5399 81.1996 86.5399Z" fill="#0B315E"/>
<path d="M99.3401 86.5399C98.2801 86.5399 97.4102 85.6799 97.4102 84.6099C97.4102 83.5499 98.2701 82.6799 99.3401 82.6799C100.41 82.6799 101.27 83.5399 101.27 84.6099C101.27 85.6799 100.4 86.5399 99.3401 86.5399Z" fill="#0B315E"/>
<path d="M85.05 99.51L0 14.46H85.05V99.51Z" fill="#FF9D00"/>
</svg>
