<svg width="288" height="514" viewBox="0 0 288 514" fill="none" xmlns="http://www.w3.org/2000/svg">
<path d="M82.1165 238.498C51.6637 257.464 16.2021 272.677 4.58194 297.965C-7.03824 323.253 5.18298 358.42 21.8119 387.265C38.2404 416.109 59.0765 438.632 83.519 462.932C107.961 487.43 136.01 513.706 163.458 513.114C191.106 512.323 218.153 484.664 239.189 459.178C260.426 433.692 275.452 410.577 282.665 385.487C289.877 360.593 288.875 333.724 281.262 308.831C273.649 283.74 259.024 260.625 238.388 238.498C217.752 216.371 190.905 195.231 164.66 196.021C138.414 196.812 112.77 219.532 82.1165 238.498Z" fill="#00A3FF"/>
<path d="M76.5 80L70.423 100.073L54 107.5L70.423 114.927L76.5 135L82.577 114.927L99 107.5L82.577 100.073L76.5 80Z" fill="#FFA800"/>
<path d="M60.3758 20.3816H54.4993V23.707H60.3758V29.5531H63.7012V23.707H69.5777V20.3816H63.7012V14.4595H60.3758V20.3816Z" fill="#C7C7C7"/>
<path d="M179.744 227.955H173.203V231.656H179.744V238.163H183.445V231.656H189.986V227.955H183.445V221.364H179.744V227.955Z" fill="white"/>
</svg>
