<svg width="149" height="79" viewBox="0 0 149 79" fill="none" xmlns="http://www.w3.org/2000/svg">
<path d="M2.00019 48.7818L20.621 64.0222C21.0341 64.3603 21.6409 64.3097 21.9921 63.9079L34.9339 49.0974C35.279 48.7025 35.8726 48.6458 36.2865 48.9683L55.1194 63.645C55.5383 63.9714 56.1402 63.9089 56.4828 63.5032L69.577 47.9998" stroke="#FFE0A3" stroke-width="3.95584"/>
<path d="M106.15 4.30002C104.96 4.30002 104 3.33002 104 2.15002C104 0.960024 104.97 0 106.15 0C107.33 0 108.3 0.970024 108.3 2.15002C108.3 3.34002 107.34 4.30002 106.15 4.30002Z" fill="#0B315E"/>
<path d="M106.15 22.77C104.96 22.77 104 21.8 104 20.62C104 19.43 104.97 18.47 106.15 18.47C107.33 18.47 108.3 19.44 108.3 20.62C108.3 21.8 107.34 22.77 106.15 22.77Z" fill="#0B315E"/>
<path d="M126.4 22.77C125.21 22.77 124.25 21.8 124.25 20.62C124.25 19.43 125.22 18.47 126.4 18.47C127.59 18.47 128.55 19.44 128.55 20.62C128.56 21.8 127.59 22.77 126.4 22.77Z" fill="#0B315E"/>
<path d="M106.15 41.24C104.96 41.24 104 40.2699 104 39.0899C104 37.8999 104.97 36.9399 106.15 36.9399C107.33 36.9399 108.3 37.9099 108.3 39.0899C108.3 40.2699 107.34 41.24 106.15 41.24Z" fill="#0B315E"/>
<path d="M126.4 41.24C125.21 41.24 124.25 40.2699 124.25 39.0899C124.25 37.8999 125.22 36.9399 126.4 36.9399C127.59 36.9399 128.55 37.9099 128.55 39.0899C128.56 40.2699 127.59 41.24 126.4 41.24Z" fill="#0B315E"/>
<path d="M146.65 41.24C145.46 41.24 144.5 40.2699 144.5 39.0899C144.5 37.8999 145.47 36.9399 146.65 36.9399C147.84 36.9399 148.8 37.9099 148.8 39.0899C148.81 40.2699 147.84 41.24 146.65 41.24Z" fill="#0B315E"/>
<path d="M106.15 59.7C104.96 59.7 104 58.73 104 57.55C104 56.36 104.97 55.4 106.15 55.4C107.33 55.4 108.3 56.37 108.3 57.55C108.3 58.74 107.34 59.7 106.15 59.7Z" fill="#0B315E"/>
<path d="M126.4 59.7C125.21 59.7 124.25 58.73 124.25 57.55C124.25 56.36 125.22 55.4 126.4 55.4C127.59 55.4 128.55 56.37 128.55 57.55C128.56 58.74 127.59 59.7 126.4 59.7Z" fill="#0B315E"/>
<path d="M106.15 78.17C107.337 78.17 108.3 77.2074 108.3 76.02C108.3 74.8326 107.337 73.87 106.15 73.87C104.963 73.87 104 74.8326 104 76.02C104 77.2074 104.963 78.17 106.15 78.17Z" fill="#0B315E"/>
</svg>
