<svg width="34" height="34" viewBox="0 0 34 34" fill="none" xmlns="http://www.w3.org/2000/svg">
<g clip-path="url(#clip0_18_2633)">
<path d="M16.5582 33.7024L15.5931 32.8751C14.2625 31.7609 2.64453 21.7272 2.64453 14.3878C2.64453 6.70351 8.87392 0.474121 16.5582 0.474121C24.2425 0.474121 30.4719 6.70351 30.4719 14.3878C30.4719 21.7273 18.854 31.761 17.5289 32.8806L16.5582 33.7024ZM16.5582 3.48267C10.5383 3.48948 5.65996 8.36787 5.65314 14.3878C5.65314 18.9985 12.801 26.3642 16.5582 29.7354C20.3156 26.3628 27.4633 18.993 27.4633 14.3878C27.4565 8.36787 22.5782 3.48955 16.5582 3.48267Z" fill="#374957"/>
<path d="M16.5582 19.9026C13.5122 19.9026 11.043 17.4333 11.043 14.3873C11.043 11.3413 13.5122 8.87207 16.5582 8.87207C19.6042 8.87207 22.0735 11.3413 22.0735 14.3873C22.0735 17.4333 19.6043 19.9026 16.5582 19.9026ZM16.5582 11.6296C15.0352 11.6296 13.8006 12.8643 13.8006 14.3873C13.8006 15.9103 15.0352 17.1449 16.5582 17.1449C18.0812 17.1449 19.3159 15.9103 19.3159 14.3873C19.3159 12.8643 18.0813 11.6296 16.5582 11.6296Z" fill="#374957"/>
</g>
<defs>
<clipPath id="clip0_18_2633">
<rect width="33.23" height="33.23" fill="white" transform="translate(0 0.461426)"/>
</clipPath>
</defs>
</svg>
