<svg width="34" height="34" viewBox="0 0 34 34" fill="none" xmlns="http://www.w3.org/2000/svg">
<g clip-path="url(#clip0_18_2629)">
<path d="M29.0769 1.61572H4.15385C3.05218 1.61572 1.99563 2.05336 1.21663 2.83236C0.437636 3.61135 0 4.6679 0 5.76957L0 32.0773H33.2308V5.76957C33.2308 4.6679 32.7931 3.61135 32.0141 2.83236C31.2351 2.05336 30.1786 1.61572 29.0769 1.61572ZM4.15385 4.38495H29.0769C29.4441 4.38495 29.7963 4.53083 30.056 4.7905C30.3157 5.05016 30.4615 5.40235 30.4615 5.76957V6.69311L19.5535 17.6025C18.7732 18.3797 17.7167 18.8161 16.6154 18.8161C15.514 18.8161 14.4576 18.3797 13.6772 17.6025L2.76923 6.69311V5.76957C2.76923 5.40235 2.91511 5.05016 3.17478 4.7905C3.43444 4.53083 3.78662 4.38495 4.15385 4.38495ZM2.76923 29.308V10.6157L11.7194 19.5603C13.019 20.8567 14.7797 21.5847 16.6154 21.5847C18.451 21.5847 20.2117 20.8567 21.5114 19.5603L30.4615 10.6157V29.308H2.76923Z" fill="#374957"/>
</g>
<defs>
<clipPath id="clip0_18_2629">
<rect width="33.2308" height="33.2308" fill="white" transform="translate(0 0.230713)"/>
</clipPath>
</defs>
</svg>
