<svg width="34" height="34" viewBox="0 0 34 34" fill="none" xmlns="http://www.w3.org/2000/svg">
<g clip-path="url(#clip0_18_2628)">
<path d="M19.6618 22.5152C15.6304 20.8083 12.4245 17.5949 10.7269 13.5595L15.4346 8.84354L6.76689 0.168923L2.37627 4.55815C1.61473 5.32405 1.01263 6.23335 0.604793 7.23345C0.196957 8.23355 -0.00851291 9.30459 0.00027014 10.3846C0.00027014 20.4203 12.8107 33.2308 22.8464 33.2308C23.9263 33.2402 24.9974 33.035 25.9973 32.6272C26.9973 32.2193 27.9063 31.6168 28.6715 30.8548L33.0621 26.4642L24.3875 17.7895L19.6618 22.5152ZM26.7123 28.8969C26.2038 29.401 25.6002 29.7989 24.9365 30.0675C24.2728 30.3361 23.5623 30.47 22.8464 30.4615C14.2161 30.4615 2.7695 19.0149 2.7695 10.3846C2.76135 9.66854 2.89545 8.95796 3.16403 8.29411C3.43262 7.63026 3.83033 7.02634 4.33412 6.51738L6.76689 4.08462L11.5258 8.84354L7.46196 12.9074L7.80119 13.7575C8.79984 16.4289 10.361 18.8544 12.3789 20.8697C14.3969 22.885 16.8244 24.443 19.497 25.4382L20.3361 25.758L24.3875 21.7052L29.1464 26.4642L26.7123 28.8969ZM19.3849 2.76923V0C23.0559 0.00403144 26.5754 1.46411 29.1711 4.0599C31.7669 6.65568 33.227 10.1752 33.231 13.8462H30.4618C30.4585 10.9094 29.2904 8.09384 27.2138 6.01723C25.1372 3.94062 22.3217 2.77253 19.3849 2.76923V2.76923ZM19.3849 8.30769V5.53846C21.5876 5.54066 23.6994 6.41664 25.2569 7.97416C26.8144 9.53168 27.6904 11.6435 27.6926 13.8462H24.9233C24.9233 12.3773 24.3398 10.9685 23.3012 9.92987C22.2625 8.89121 20.8538 8.30769 19.3849 8.30769Z" fill="#374957"/>
</g>
<defs>
<clipPath id="clip0_18_2628">
<rect width="33.2308" height="33.2308" fill="white"/>
</clipPath>
</defs>
</svg>
