<svg width="33" height="40" viewBox="0 0 33 40" fill="none" xmlns="http://www.w3.org/2000/svg">
<rect x="1.5" y="4.96143" width="30" height="33" rx="1.5" stroke="#374957" stroke-width="3"/>
<path d="M14.3008 39V23.2432H11.5835V20.8506H14.3008V18.9194C14.3008 17.7004 14.409 16.7946 14.6255 16.2021C14.9217 15.4046 15.4401 14.7609 16.1807 14.271C16.9326 13.7697 17.9808 13.519 19.3252 13.519C20.1911 13.519 21.1481 13.6216 22.1963 13.8267L21.7349 16.5098C21.0968 16.3958 20.493 16.3389 19.9233 16.3389C18.9891 16.3389 18.3283 16.5382 17.9409 16.937C17.5535 17.3358 17.3599 18.082 17.3599 19.1758V20.8506H20.8975V23.2432H17.3599V39H14.3008Z" fill="#374957"/>
</svg>
