<svg width="50" height="42" viewBox="0 0 50 42" fill="none" xmlns="http://www.w3.org/2000/svg">
<path d="M47.908 10.7721C28.5147 12.4955 23.4276 28.6227 23.2413 37.6043C23.2289 38.2022 23.7677 38.6493 24.3546 38.534C39.4465 35.5709 47.1513 17.3835 48.8655 11.9161C49.0609 11.2932 48.5583 10.7143 47.908 10.7721Z" fill="white"/>
<path d="M26.0051 0.912862C11.5669 15.586 17.8657 30.7794 23.4921 37.4076C23.8721 37.8553 24.5575 37.8385 24.9278 37.3827C35.1251 24.8316 29.6316 6.36595 27.4726 1.16595C27.2221 0.562713 26.4632 0.447291 26.0051 0.912862Z" fill="white" fill-opacity="0.76"/>
<path d="M0.975281 12.7934C17.1123 13.3258 22.8138 29.2245 23.7806 38.0447C23.8313 38.5074 23.4359 38.8909 22.9763 38.8169C10.1522 36.7524 2.02245 18.6026 0.292003 13.6901C0.129473 13.2287 0.486358 12.7773 0.975281 12.7934Z" fill="white"/>
</svg>
